<?xml version="1.0" encoding="UTF-8" standalone="no"?>
<!-- Generator: Adobe Illustrator 16.0.0, SVG Export Plug-In . SVG Version: 6.00 Build 0)  -->

<svg
   version="1.1"
   id="Layer_1"
   x="0px"
   y="0px"
   width="300"
   height="431.58096"
   viewBox="0 0 300 431.58096"
   enable-background="new 0 0 1000 1000"
   xml:space="preserve"
   xmlns="http://www.w3.org/2000/svg"
   xmlns:svg="http://www.w3.org/2000/svg"><defs
   id="defs8" />
<g
   id="g2"
   transform="translate(-350,-284.20901)">
	<path
   fill="#1c68a6"
   d="M 615.21,284.209 H 384.794 c -19.227,0 -34.794,15.57 -34.794,34.784 0,19.213 15.567,34.769 34.794,34.769 H 562.118 L 376.485,541.3 c -9.29,9.396 -9.21,24.521 0.172,33.819 4.659,4.605 10.753,6.926 16.818,6.926 6.153,0 12.325,-2.384 16.998,-7.096 1.987,-2.012 3.977,-4.029 5.967,-6.034 4.617,-4.67 9.244,-9.339 13.875,-14.021 7.514,-7.588 15.032,-15.183 22.561,-22.786 9.177,-9.297 18.369,-18.572 27.557,-27.833 9.93,-10.044 19.864,-20.086 29.822,-30.114 10.211,-10.338 20.439,-20.687 30.692,-31.021 9.92,-10.043 19.878,-20.078 29.813,-30.114 8.748,-8.847 17.493,-17.68 26.249,-26.526 6.555,-6.625 13.105,-13.25 19.662,-19.871 4.291,-4.328 8.559,-8.653 12.864,-12.979 5.288,-5.358 10.815,-10.274 15.252,-16.371 3.401,-5.476 5.212,-11.851 5.212,-18.285 C 650,299.779 634.42,284.209 615.21,284.209 Z"
   id="path1" />
	<path
   fill="#1c68a6"
   d="M 615.21,646.238 H 437.883 L 623.516,458.702 c 9.283,-9.381 9.205,-24.522 -0.176,-33.813 -4.66,-4.617 -10.754,-6.927 -16.819,-6.927 -6.157,0 -12.328,2.373 -16.998,7.099 -1.983,2.008 -3.979,4.016 -5.962,6.031 -4.621,4.67 -9.246,9.339 -13.872,14.016 -7.522,7.595 -15.044,15.194 -22.567,22.793 -9.172,9.276 -18.366,18.559 -27.563,27.835 -9.923,10.043 -19.859,20.084 -29.811,30.114 -10.215,10.338 -20.447,20.676 -30.689,31.007 -9.931,10.04 -19.886,20.083 -29.822,30.118 -8.749,8.848 -17.49,17.682 -26.249,26.535 -6.559,6.61 -13.102,13.242 -19.667,19.865 -4.283,4.326 -8.572,8.658 -12.858,12.983 -5.289,5.345 -10.813,10.261 -15.251,16.372 -3.407,5.472 -5.211,11.842 -5.211,18.277 0,19.221 15.567,34.783 34.794,34.783 H 615.21 c 19.21,0 34.79,-15.563 34.79,-34.783 0,-19.204 -15.58,-34.769 -34.79,-34.769 z"
   id="path2" />
</g>






</svg>
