<?xml version="1.0" encoding="UTF-8" standalone="no"?>
<!-- Generator: Adobe Illustrator 16.0.0, SVG Export Plug-In . SVG Version: 6.00 Build 0)  -->

<svg
   version="1.1"
   id="Layer_1"
   x="0px"
   y="0px"
   width="645.565"
   height="123.26602"
   viewBox="0 0 645.565 123.26602"
   enable-background="new 0 0 1000 1000"
   xml:space="preserve"
   xmlns="http://www.w3.org/2000/svg"
   xmlns:svg="http://www.w3.org/2000/svg"><defs
   id="defs45" />
<g
   id="g39"
   transform="translate(-180.90604,-417.86796)">
	
	<g
   id="g38"
   transform="translate(3.6900369,-4.9200488)">
		<path
   fill="#ffffff"
   d="m 601.274,424.722 c -2.846,0 -5.441,1.024 -7.51,2.966 -2.027,1.91 -3.057,4.425 -3.057,7.477 0,2.8 0.951,5.238 2.828,7.241 2.031,2.179 4.666,3.329 7.617,3.329 3.029,0 5.705,-1.15 7.738,-3.327 1.877,-2.009 2.828,-4.446 2.828,-7.243 0,-3.052 -1.029,-5.566 -3.061,-7.479 -2.062,-1.939 -4.617,-2.964 -7.383,-2.964 z"
   id="path28" />
		<g
   id="g37">
			<path
   fill="#ffffff"
   d="m 250.871,424.788 h -63.992 c -5.34,0 -9.663,4.324 -9.663,9.66 0,5.336 4.323,9.656 9.663,9.656 h 49.247 l -51.555,52.084 c -2.58,2.609 -2.558,6.81 0.048,9.392 1.294,1.279 2.986,1.924 4.671,1.924 1.709,0 3.423,-0.662 4.721,-1.971 0.552,-0.559 1.104,-1.119 1.657,-1.676 1.282,-1.297 2.567,-2.594 3.854,-3.894 2.087,-2.107 4.175,-4.217 6.266,-6.328 2.549,-2.582 5.102,-5.158 7.653,-7.73 2.758,-2.789 5.517,-5.578 8.282,-8.363 2.836,-2.871 5.677,-5.745 8.524,-8.615 2.755,-2.789 5.521,-5.576 8.279,-8.363 2.43,-2.457 4.858,-4.91 7.29,-7.367 1.82,-1.84 3.64,-3.68 5.461,-5.519 1.191,-1.202 2.377,-2.403 3.572,-3.604 1.469,-1.488 3.004,-2.854 4.236,-4.547 0.944,-1.521 1.447,-3.291 1.447,-5.078 0.001,-5.337 -4.326,-9.661 -9.661,-9.661 z"
   id="path29" />
			<path
   fill="#ffffff"
   d="m 250.871,525.332 h -49.248 l 51.555,-52.083 c 2.578,-2.605 2.557,-6.811 -0.049,-9.391 -1.294,-1.282 -2.986,-1.924 -4.671,-1.924 -1.71,0 -3.424,0.659 -4.721,1.972 -0.551,0.558 -1.105,1.115 -1.656,1.675 -1.283,1.297 -2.567,2.594 -3.853,3.893 -2.089,2.109 -4.178,4.22 -6.268,6.33 -2.547,2.576 -5.101,5.154 -7.654,7.73 -2.756,2.789 -5.516,5.578 -8.279,8.363 -2.837,2.871 -5.679,5.742 -8.523,8.611 -2.758,2.789 -5.522,5.578 -8.282,8.365 -2.43,2.457 -4.857,4.91 -7.29,7.369 -1.821,1.836 -3.639,3.678 -5.462,5.518 -1.189,1.201 -2.381,2.404 -3.571,3.605 -1.469,1.484 -3.003,2.85 -4.235,4.547 -0.946,1.52 -1.447,3.289 -1.447,5.076 0,5.338 4.323,9.66 9.663,9.66 h 63.992 c 5.335,0 9.662,-4.322 9.662,-9.66 -10e-4,-5.334 -4.328,-9.656 -9.663,-9.656 z"
   id="path30" />
			<path
   fill="#ffffff"
   d="m 687.956,456.956 c -1.162,0 -2.295,0.238 -3.363,0.709 -1.063,0.467 -1.994,1.113 -2.773,1.92 -0.766,0.795 -1.395,1.73 -1.871,2.783 -0.494,1.096 -0.744,2.273 -0.744,3.5 v 35.208 c 0,3.23 -0.502,6.303 -1.494,9.131 -0.986,2.814 -2.383,5.305 -4.15,7.4 -1.744,2.076 -3.889,3.736 -6.367,4.934 -2.473,1.193 -5.279,1.797 -8.348,1.797 -3.084,0 -5.973,-0.596 -8.586,-1.771 -2.623,-1.178 -4.939,-2.813 -6.881,-4.857 -1.945,-2.047 -3.508,-4.484 -4.646,-7.244 -1.135,-2.756 -1.736,-5.754 -1.787,-8.885 v -35.712 c 0,-2.486 -0.861,-4.619 -2.561,-6.339 -1.688,-1.708 -3.73,-2.573 -6.07,-2.573 -2.4,0 -4.461,0.871 -6.123,2.588 -1.664,1.719 -2.506,3.85 -2.506,6.334 v 35.335 c 0,5.629 1.021,11.004 3.035,15.973 2.01,4.959 4.803,9.359 8.297,13.074 3.498,3.721 7.666,6.697 12.391,8.844 4.734,2.154 9.914,3.246 15.398,3.246 5.436,0 10.523,-1.096 15.129,-3.254 4.594,-2.152 8.604,-5.135 11.916,-8.867 3.299,-3.717 5.924,-8.117 7.795,-13.078 1.871,-4.959 2.818,-10.32 2.818,-15.938 v -35.335 c 0,-2.471 -0.805,-4.594 -2.393,-6.311 -1.604,-1.734 -3.661,-2.612 -6.116,-2.612 z"
   id="path31" />
			<path
   fill="#ffffff"
   d="m 566.532,461.513 c -5.023,-3.247 -10.771,-4.894 -17.082,-4.894 -5.861,0 -11.266,1.605 -16.061,4.771 -0.701,0.463 -1.385,0.955 -2.051,1.475 -0.344,-0.88 -0.809,-1.68 -1.391,-2.395 -1.594,-1.954 -3.781,-2.986 -6.33,-2.986 -2.627,0 -4.857,1.033 -6.447,2.986 -1.414,1.736 -2.133,3.97 -2.133,6.637 v 67.763 c 0,2.57 0.719,4.754 2.131,6.488 1.592,1.955 3.822,2.99 6.449,2.99 2.549,0 4.738,-1.033 6.33,-2.988 1.414,-1.736 2.131,-3.92 2.131,-6.49 v -42.677 c 0,-3.365 0.713,-6.256 2.18,-8.84 1.463,-2.576 3.391,-4.547 5.895,-6.025 2.488,-1.47 5.223,-2.184 8.357,-2.184 3.275,0 6.113,0.753 8.668,2.303 2.514,1.525 4.471,3.801 5.98,6.955 1.572,3.289 2.369,7.656 2.369,12.982 v 37.486 c 0,2.479 0.738,4.639 2.188,6.414 1.629,2.004 3.84,3.064 6.393,3.064 2.471,0 4.641,-1.059 6.271,-3.061 1.453,-1.785 2.189,-3.945 2.189,-6.418 v -37.486 c 0,-8.428 -1.408,-15.738 -4.188,-21.727 -2.854,-6.144 -6.84,-10.902 -11.848,-14.143 z"
   id="path32" />
			<path
   fill="#ffffff"
   d="m 601.274,457.485 c -2.639,0 -4.879,1.024 -6.482,2.962 -1.443,1.741 -2.174,3.981 -2.174,6.661 v 67.619 c 0,2.678 0.73,4.92 2.172,6.658 1.604,1.939 3.846,2.965 6.484,2.965 2.559,0 4.758,-1.025 6.365,-2.965 1.439,-1.74 2.17,-3.982 2.17,-6.658 v -67.619 c 0,-2.678 -0.73,-4.918 -2.172,-6.662 -1.605,-1.938 -3.806,-2.961 -6.363,-2.961 z"
   id="path33" />
			<path
   fill="#ffffff"
   d="m 818.868,474.418 c -2.656,-5.514 -6.434,-9.861 -11.227,-12.924 -4.811,-3.069 -10.375,-4.625 -16.537,-4.625 -6.398,0 -12.23,1.534 -17.336,4.561 -2.873,1.704 -5.42,3.816 -7.611,6.312 -2.014,-2.462 -4.357,-4.552 -7.01,-6.247 -4.811,-3.069 -10.375,-4.625 -16.537,-4.625 -6.066,0 -11.604,1.553 -16.455,4.616 -0.564,0.356 -1.117,0.731 -1.656,1.122 -0.377,-0.753 -0.855,-1.449 -1.432,-2.077 -1.684,-1.829 -3.959,-2.796 -6.58,-2.796 -2.713,0 -5.035,0.967 -6.723,2.799 -1.602,1.743 -2.447,4.016 -2.447,6.574 v 67.763 c 0,2.592 0.867,4.863 2.51,6.566 1.17,1.215 3.275,2.662 6.66,2.662 2.588,0 4.844,-0.922 6.521,-2.662 1.641,-1.703 2.508,-3.975 2.508,-6.566 v -42.677 c 0,-5.297 1.48,-9.428 4.525,-12.625 2.992,-3.146 6.74,-4.674 11.457,-4.674 4.262,0 7.65,1.529 10.355,4.676 2.811,3.273 4.236,7.908 4.236,13.777 v 41.523 c 0,2.629 0.912,4.922 2.639,6.627 1.717,1.701 3.975,2.602 6.529,2.602 2.59,0 4.844,-0.922 6.521,-2.662 1.643,-1.703 2.51,-3.975 2.51,-6.566 v -41.523 l -0.002,-0.309 0.002,-0.033 -0.004,-0.488 c 0.008,-5.455 1.438,-9.662 4.367,-12.855 2.943,-3.209 6.652,-4.768 11.34,-4.768 4.262,0 7.65,1.529 10.355,4.676 2.811,3.273 4.236,7.908 4.236,13.777 v 41.523 c 0,2.629 0.912,4.922 2.639,6.627 1.717,1.701 3.975,2.602 6.529,2.602 2.59,0 4.844,-0.922 6.521,-2.662 1.643,-1.703 2.51,-3.975 2.51,-6.566 V 493.35 c 0.003,-7.174 -1.315,-13.541 -3.913,-18.932 z"
   id="path34" />
			<path
   fill="#ffffff"
   d="m 412.671,528.055 c -8.49,-0.037 -19.506,-2.305 -24.957,-8.553 -5.599,-6.416 -5.476,-16.039 -5.345,-26.226 0.022,-1.692 0.043,-3.371 0.039,-5.025 -0.01,-4.305 -0.036,-7.609 -0.062,-11.914 -0.003,-0.396 -0.003,-0.794 -0.005,-1.19 h 26.955 c 4.418,0 8,-4.582 8,-9 0,-4.418 -3.582,-9 -8,-9 H 382.28 c -10e-4,-8.782 0.004,-16.563 0.016,-25.347 0.007,-4.971 -4.018,-9.005 -8.988,-9.012 -0.004,0 -0.008,0 -0.013,0 -4.964,0 -8.992,4.021 -8.999,8.988 -0.013,9.021 -0.017,18.043 -0.017,27.064 10e-4,5.535 0.033,11.07 0.066,16.604 0.026,4.282 0.052,8.565 0.062,12.849 0.004,1.564 -0.017,3.152 -0.037,4.752 -0.152,11.892 -0.343,26.691 9.78,38.292 7.978,9.143 22.347,14.645 38.438,14.717 0.015,0 0.028,0 0.042,0 4.951,0 8.977,-4.002 8.999,-8.959 0.023,-4.968 -3.987,-9.017 -8.958,-9.04 z"
   id="path35" />
			<path
   fill="#ffffff"
   d="m 497.774,457.485 c -2.638,0 -4.879,1.024 -6.482,2.962 -1.442,1.741 -2.174,3.981 -2.174,6.661 v 0.922 c -7.351,-6.11 -16.788,-9.791 -27.071,-9.791 -23.388,0 -42.414,19.027 -42.414,42.414 0,23.386 19.026,42.414 42.414,42.414 10.283,0 19.721,-3.682 27.071,-9.791 v 1.451 c 0,2.678 0.731,4.92 2.172,6.658 1.604,1.939 3.847,2.965 6.484,2.965 2.559,0 4.758,-1.025 6.365,-2.965 1.439,-1.74 2.17,-3.982 2.17,-6.658 v -67.619 c 0,-2.678 -0.73,-4.918 -2.172,-6.662 -1.605,-1.938 -3.806,-2.961 -6.363,-2.961 z m -35.727,69.581 c -14.565,0 -26.414,-11.85 -26.414,-26.414 0,-14.564 11.849,-26.414 26.414,-26.414 14.564,0 26.414,11.85 26.414,26.414 0,14.565 -11.85,26.414 -26.414,26.414 z"
   id="path36" />
			<path
   fill="#ffffff"
   d="m 313.559,458.19 c -24.601,0 -44.615,19.305 -44.615,43.033 0,23.729 20.014,43.033 44.615,43.033 11.64,0 22.654,-4.295 31.016,-12.098 3.433,-3.201 3.619,-8.58 0.416,-12.014 -3.202,-3.432 -8.58,-3.619 -12.014,-0.416 -5.202,4.855 -12.099,7.527 -19.418,7.527 -12.961,0 -23.864,-8.461 -26.823,-19.83 5.929,0.006 11.858,0.027 17.788,0.051 13.93,0.051 28.333,0.104 42.524,-0.051 2.416,-0.025 4.706,-1.08 6.299,-2.895 1.593,-1.816 2.337,-4.225 2.048,-6.624 -2.914,-24.126 -19.334,-39.716 -41.836,-39.716 z m -8.973,32.286 c -5.386,-0.021 -10.771,-0.04 -16.155,-0.049 4.359,-8.981 13.983,-15.237 25.128,-15.237 13.319,0 19.59,8.09 22.531,15.317 -10.557,0.047 -21.162,0.006 -31.504,-0.031 z"
   id="path37" />
		</g>
	</g>
</g>






</svg>
